<svg width="38" height="59" viewBox="0 0 38 59" fill="none" xmlns="http://www.w3.org/2000/svg">
<path d="M20.6087 42.6667C20.8865 43.3562 21.0495 44.193 21.0495 45.101C21.0495 47.4363 19.2331 49.3345 18.6304 49.3333C18.0254 49.3333 16.2089 47.4363 16.2089 45.101C16.2089 44.193 16.3744 43.3562 16.651 42.6667H13.8478C13.5169 43.8802 13.3333 45.2375 13.3333 46.6671C13.3333 51.822 17.3333 55.9976 18.6679 56C20.0012 56 24 51.822 24 46.6671C24 45.2375 23.8152 43.8802 23.4855 42.6667H20.6087Z" fill="#393473"/>
<path d="M0 27.1536L7.09447 20.2811C9.21759 10.1818 15.4485 0 18.6349 0C21.819 0 28.0499 10.1818 30.173 20.2811L37.3333 27.2196V45.3333H32.3416L25.3821 38.5938C24.6684 39.317 23.8774 39.9237 23.0321 40.4018H14.223C13.3833 39.9226 12.5991 39.3126 11.8854 38.5938L4.92482 45.3333H0V27.1536ZM18.6417 10.6192C19.7504 10.6192 21.7044 13.6384 22.9197 17.2488C21.6034 17.0136 20.1986 16.8806 18.7359 16.8806C17.1949 16.8806 15.7243 17.029 14.3478 17.2906C15.5643 13.6614 17.5274 10.6192 18.6417 10.6192Z" fill="#393473"/>
</svg>
